<svg xmlns="http://www.w3.org/2000/svg" viewBox="0 0 100 100">
  <!-- Background circle -->
  <circle cx="50" cy="50" r="45" fill="#a1887f" />
  
  <!-- Sloth body -->
  <ellipse cx="50" cy="55" rx="30" ry="35" fill="#8d6e63" />
  
  <!-- Sloth face -->
  <circle cx="50" cy="40" r="20" fill="#a1887f" />
  
  <!-- Sloth eyes -->
  <circle cx="43" cy="35" r="4" fill="black" />
  <circle cx="57" cy="35" r="4" fill="black" />
  <circle cx="43" cy="34" r="1" fill="white" />
  <circle cx="57" cy="34" r="1" fill="white" />
  
  <!-- Sloth nose and mouth -->
  <ellipse cx="50" cy="42" rx="5" ry="3" fill="#6d4c41" />
  <path d="M45,48 Q50,52 55,48" fill="none" stroke="#6d4c41" stroke-width="1.5" />
  
  <!-- Wizard's Wand -->
  <line x1="65" y1="60" x2="80" y2="45" stroke="#8b4513" stroke-width="3" stroke-linecap="round" />
  <circle cx="82" cy="43" r="5" fill="#ffeb3b" />
  <circle cx="82" cy="43" r="2" fill="#fff" opacity="0.7" />
  <!-- Sparkles around the wand -->
  <path d="M85,40 L87,42 M85,44 L87,42 M89,42 L87,42" stroke="#ffeb3b" stroke-width="1.5" />
  <path d="M80,35 L82,37 M80,39 L82,37 M84,37 L82,37" stroke="#ffeb3b" stroke-width="1.5" />
  <path d="M75,45 L77,47 M75,49 L77,47 M79,47 L77,47" stroke="#ffeb3b" stroke-width="1.5" />
</svg>
